<mxfile host="drawio-plugin" modified="2022-02-25T06:04:40.695Z" agent="5.0 (Windows NT 6.2; Win64; x64) AppleWebKit/537.36 (KHTML, like Gecko) Chrome/89.0.4389.114 Safari/537.36" etag="Of5WS3qgDMxT5XoObeRN" version="15.5.4" type="embed" pages="3"><diagram id="-F8EhwKhfn0_jvjVNpRX" name="HSD"><mxGraphModel dx="1128" dy="735" grid="1" gridSize="10" guides="1" tooltips="1" connect="1" arrows="1" fold="1" page="1" pageScale="1" pageWidth="1100" pageHeight="1700" math="0" shadow="0"><root><mxCell id="0"/><mxCell id="1" parent="0"/><mxCell id="3aBQVrcnReezvdrkYUYn-1" value="" style="rounded=1;whiteSpace=wrap;html=1;" parent="1" vertex="1"><mxGeometry x="860" y="120" width="120" height="40" as="geometry"/></mxCell><mxCell id="3aBQVrcnReezvdrkYUYn-2" value="" style="rounded=1;whiteSpace=wrap;html=1;" parent="1" vertex="1"><mxGeometry x="870" y="130" width="120" height="40" as="geometry"/></mxCell><mxCell id="3aBQVrcnReezvdrkYUYn-3" value="Cache Servers" style="rounded=1;whiteSpace=wrap;html=1;" parent="1" vertex="1"><mxGeometry x="880" y="140" width="120" height="40" as="geometry"/></mxCell><mxCell id="3aBQVrcnReezvdrkYUYn-4" value="" style="rhombus;whiteSpace=wrap;html=1;" parent="1" vertex="1"><mxGeometry x="610" y="125" width="80" height="70" as="geometry"/></mxCell><mxCell id="3aBQVrcnReezvdrkYUYn-5" value="" style="rhombus;whiteSpace=wrap;html=1;" parent="1" vertex="1"><mxGeometry x="620" y="125" width="80" height="70" as="geometry"/></mxCell><mxCell id="3aBQVrcnReezvdrkYUYn-6" value="Load Balancers" style="rhombus;whiteSpace=wrap;html=1;" parent="1" vertex="1"><mxGeometry x="630" y="125" width="80" height="70" as="geometry"/></mxCell><mxCell id="3aBQVrcnReezvdrkYUYn-7" value="" style="rhombus;whiteSpace=wrap;html=1;" parent="1" vertex="1"><mxGeometry x="610" y="280" width="80" height="70" as="geometry"/></mxCell><mxCell id="3aBQVrcnReezvdrkYUYn-8" value="" style="rhombus;whiteSpace=wrap;html=1;" parent="1" vertex="1"><mxGeometry x="620" y="280" width="80" height="70" as="geometry"/></mxCell><mxCell id="3aBQVrcnReezvdrkYUYn-9" value="Load Balancers" style="rhombus;whiteSpace=wrap;html=1;" parent="1" vertex="1"><mxGeometry x="630" y="280" width="80" height="70" as="geometry"/></mxCell><mxCell id="3aBQVrcnReezvdrkYUYn-10" value="" style="image;html=1;image=img/lib/clip_art/computers/Database_128x128.png" parent="1" vertex="1"><mxGeometry x="880" y="277.5" width="80" height="80" as="geometry"/></mxCell><mxCell id="3aBQVrcnReezvdrkYUYn-11" value="Database Servers" style="image;html=1;image=img/lib/clip_art/computers/Database_128x128.png" parent="1" vertex="1"><mxGeometry x="900" y="272.5" width="80" height="80" as="geometry"/></mxCell><mxCell id="3aBQVrcnReezvdrkYUYn-14" value="" style="endArrow=classic;startArrow=classic;html=1;rounded=0;exitX=1;exitY=0.5;exitDx=0;exitDy=0;entryX=0;entryY=0.5;entryDx=0;entryDy=0;" parent="1" source="3aBQVrcnReezvdrkYUYn-6" target="3aBQVrcnReezvdrkYUYn-3" edge="1"><mxGeometry width="50" height="50" relative="1" as="geometry"><mxPoint x="740" y="190" as="sourcePoint"/><mxPoint x="790" y="140" as="targetPoint"/></mxGeometry></mxCell><mxCell id="3aBQVrcnReezvdrkYUYn-15" value="" style="endArrow=classic;startArrow=classic;html=1;rounded=0;exitX=1;exitY=0.5;exitDx=0;exitDy=0;entryX=0;entryY=0.5;entryDx=0;entryDy=0;" parent="1" source="3aBQVrcnReezvdrkYUYn-9" target="3aBQVrcnReezvdrkYUYn-10" edge="1"><mxGeometry width="50" height="50" relative="1" as="geometry"><mxPoint x="710" y="324.5" as="sourcePoint"/><mxPoint x="880" y="324.5" as="targetPoint"/></mxGeometry></mxCell><mxCell id="3aBQVrcnReezvdrkYUYn-16" value="" style="rounded=1;whiteSpace=wrap;html=1;" parent="1" vertex="1"><mxGeometry x="360" y="185" width="120" height="40" as="geometry"/></mxCell><mxCell id="3aBQVrcnReezvdrkYUYn-17" value="" style="rounded=1;whiteSpace=wrap;html=1;" parent="1" vertex="1"><mxGeometry x="370" y="195" width="120" height="40" as="geometry"/></mxCell><mxCell id="3aBQVrcnReezvdrkYUYn-18" value="Application Servers" style="rounded=1;whiteSpace=wrap;html=1;" parent="1" vertex="1"><mxGeometry x="380" y="205" width="120" height="40" as="geometry"/></mxCell><mxCell id="3aBQVrcnReezvdrkYUYn-19" value="" style="endArrow=classic;startArrow=classic;html=1;rounded=0;entryX=0;entryY=0.5;entryDx=0;entryDy=0;exitX=1;exitY=0.5;exitDx=0;exitDy=0;" parent="1" source="3aBQVrcnReezvdrkYUYn-18" target="3aBQVrcnReezvdrkYUYn-4" edge="1"><mxGeometry width="50" height="50" relative="1" as="geometry"><mxPoint x="440" y="380" as="sourcePoint"/><mxPoint x="490" y="330" as="targetPoint"/></mxGeometry></mxCell><mxCell id="3aBQVrcnReezvdrkYUYn-23" value="" style="endArrow=classic;startArrow=classic;html=1;rounded=0;entryX=1;entryY=0.5;entryDx=0;entryDy=0;exitX=0;exitY=0.5;exitDx=0;exitDy=0;" parent="1" source="3aBQVrcnReezvdrkYUYn-7" target="3aBQVrcnReezvdrkYUYn-18" edge="1"><mxGeometry width="50" height="50" relative="1" as="geometry"><mxPoint x="510" y="235" as="sourcePoint"/><mxPoint x="620" y="160" as="targetPoint"/></mxGeometry></mxCell><mxCell id="3aBQVrcnReezvdrkYUYn-24" value="" style="endArrow=classic;startArrow=classic;html=1;rounded=0;exitX=0.5;exitY=0;exitDx=0;exitDy=0;entryX=0.5;entryY=1;entryDx=0;entryDy=0;" parent="1" source="3aBQVrcnReezvdrkYUYn-11" target="3aBQVrcnReezvdrkYUYn-3" edge="1"><mxGeometry width="50" height="50" relative="1" as="geometry"><mxPoint x="970" y="260" as="sourcePoint"/><mxPoint x="950" y="190" as="targetPoint"/></mxGeometry></mxCell><mxCell id="3aBQVrcnReezvdrkYUYn-27" value="" style="rhombus;whiteSpace=wrap;html=1;" parent="1" vertex="1"><mxGeometry x="170" y="180" width="80" height="70" as="geometry"/></mxCell><mxCell id="3aBQVrcnReezvdrkYUYn-28" value="" style="rhombus;whiteSpace=wrap;html=1;" parent="1" vertex="1"><mxGeometry x="180" y="180" width="80" height="70" as="geometry"/></mxCell><mxCell id="3aBQVrcnReezvdrkYUYn-29" value="Load Balancers" style="rhombus;whiteSpace=wrap;html=1;" parent="1" vertex="1"><mxGeometry x="190" y="180" width="80" height="70" as="geometry"/></mxCell><mxCell id="3aBQVrcnReezvdrkYUYn-30" value="Clients" style="ellipse;shape=cloud;whiteSpace=wrap;html=1;" parent="1" vertex="1"><mxGeometry x="40" y="390" width="120" height="80" as="geometry"/></mxCell><mxCell id="3aBQVrcnReezvdrkYUYn-31" value="" style="endArrow=classic;startArrow=classic;html=1;rounded=0;entryX=0;entryY=0.5;entryDx=0;entryDy=0;exitX=0.875;exitY=0.5;exitDx=0;exitDy=0;exitPerimeter=0;" parent="1" source="3aBQVrcnReezvdrkYUYn-30" target="3aBQVrcnReezvdrkYUYn-27" edge="1"><mxGeometry width="50" height="50" relative="1" as="geometry"><mxPoint x="160" y="460" as="sourcePoint"/><mxPoint x="210" y="410" as="targetPoint"/></mxGeometry></mxCell><mxCell id="3aBQVrcnReezvdrkYUYn-32" value="" style="endArrow=classic;startArrow=classic;html=1;rounded=0;exitX=1;exitY=0.5;exitDx=0;exitDy=0;entryX=0;entryY=0.75;entryDx=0;entryDy=0;" parent="1" source="3aBQVrcnReezvdrkYUYn-29" target="3aBQVrcnReezvdrkYUYn-16" edge="1"><mxGeometry width="50" height="50" relative="1" as="geometry"><mxPoint x="350" y="320" as="sourcePoint"/><mxPoint x="400" y="270" as="targetPoint"/></mxGeometry></mxCell><mxCell id="3aBQVrcnReezvdrkYUYn-33" value="" style="rounded=1;whiteSpace=wrap;html=1;" parent="1" vertex="1"><mxGeometry x="380" y="400" width="120" height="40" as="geometry"/></mxCell><mxCell id="3aBQVrcnReezvdrkYUYn-34" value="" style="rounded=1;whiteSpace=wrap;html=1;" parent="1" vertex="1"><mxGeometry x="390" y="410" width="120" height="40" as="geometry"/></mxCell><mxCell id="3aBQVrcnReezvdrkYUYn-35" value="Key Generation Service" style="rounded=1;whiteSpace=wrap;html=1;" parent="1" vertex="1"><mxGeometry x="400" y="420" width="120" height="40" as="geometry"/></mxCell><mxCell id="3aBQVrcnReezvdrkYUYn-36" value="" style="endArrow=classic;startArrow=classic;html=1;rounded=0;entryX=0.5;entryY=1;entryDx=0;entryDy=0;exitX=0.5;exitY=0;exitDx=0;exitDy=0;" parent="1" source="3aBQVrcnReezvdrkYUYn-33" target="3aBQVrcnReezvdrkYUYn-18" edge="1"><mxGeometry width="50" height="50" relative="1" as="geometry"><mxPoint x="390" y="360" as="sourcePoint"/><mxPoint x="440" y="310" as="targetPoint"/></mxGeometry></mxCell><mxCell id="3aBQVrcnReezvdrkYUYn-37" value="Key-DB" style="strokeWidth=2;html=1;shape=mxgraph.flowchart.database;whiteSpace=wrap;" parent="1" vertex="1"><mxGeometry x="430" y="540" width="60" height="60" as="geometry"/></mxCell><mxCell id="3aBQVrcnReezvdrkYUYn-41" value="Key-DB&lt;br&gt;Standby" style="strokeWidth=2;html=1;shape=mxgraph.flowchart.database;whiteSpace=wrap;" parent="1" vertex="1"><mxGeometry x="240" y="540" width="60" height="60" as="geometry"/></mxCell><mxCell id="3aBQVrcnReezvdrkYUYn-42" value="" style="endArrow=classic;startArrow=classic;html=1;rounded=0;entryX=0.5;entryY=1;entryDx=0;entryDy=0;exitX=0.5;exitY=0;exitDx=0;exitDy=0;exitPerimeter=0;" parent="1" source="3aBQVrcnReezvdrkYUYn-37" target="3aBQVrcnReezvdrkYUYn-35" edge="1"><mxGeometry width="50" height="50" relative="1" as="geometry"><mxPoint x="430" y="520" as="sourcePoint"/><mxPoint x="480" y="470" as="targetPoint"/></mxGeometry></mxCell><mxCell id="3aBQVrcnReezvdrkYUYn-46" value="" style="endArrow=classic;html=1;rounded=0;entryX=1;entryY=0.5;entryDx=0;entryDy=0;entryPerimeter=0;exitX=0;exitY=0.5;exitDx=0;exitDy=0;exitPerimeter=0;" parent="1" source="3aBQVrcnReezvdrkYUYn-37" target="3aBQVrcnReezvdrkYUYn-41" edge="1"><mxGeometry width="50" height="50" relative="1" as="geometry"><mxPoint x="100" y="640" as="sourcePoint"/><mxPoint x="150" y="590" as="targetPoint"/></mxGeometry></mxCell><mxCell id="3aBQVrcnReezvdrkYUYn-47" value="" style="rounded=1;whiteSpace=wrap;html=1;" parent="1" vertex="1"><mxGeometry x="880" y="540" width="120" height="40" as="geometry"/></mxCell><mxCell id="3aBQVrcnReezvdrkYUYn-48" value="" style="rounded=1;whiteSpace=wrap;html=1;" parent="1" vertex="1"><mxGeometry x="890" y="550" width="120" height="40" as="geometry"/></mxCell><mxCell id="3aBQVrcnReezvdrkYUYn-49" value="Key/Url clean-up service" style="rounded=1;whiteSpace=wrap;html=1;" parent="1" vertex="1"><mxGeometry x="900" y="560" width="120" height="40" as="geometry"/></mxCell><mxCell id="3aBQVrcnReezvdrkYUYn-50" value="" style="endArrow=classic;html=1;rounded=0;entryX=0.5;entryY=1;entryDx=0;entryDy=0;exitX=0.5;exitY=0;exitDx=0;exitDy=0;" parent="1" source="3aBQVrcnReezvdrkYUYn-47" target="3aBQVrcnReezvdrkYUYn-11" edge="1"><mxGeometry width="50" height="50" relative="1" as="geometry"><mxPoint x="940" y="480" as="sourcePoint"/><mxPoint x="990" y="430" as="targetPoint"/></mxGeometry></mxCell><mxCell id="3aBQVrcnReezvdrkYUYn-51" value="" style="endArrow=classic;html=1;rounded=0;exitX=0;exitY=0.5;exitDx=0;exitDy=0;entryX=1;entryY=0.5;entryDx=0;entryDy=0;entryPerimeter=0;" parent="1" source="3aBQVrcnReezvdrkYUYn-48" target="3aBQVrcnReezvdrkYUYn-37" edge="1"><mxGeometry width="50" height="50" relative="1" as="geometry"><mxPoint x="730" y="610" as="sourcePoint"/><mxPoint x="780" y="560" as="targetPoint"/></mxGeometry></mxCell></root></mxGraphModel></diagram><diagram id="k_G68c8kxDia4Um4tuYR" name="UsecaseDiagram"><mxGraphModel dx="1128" dy="735" grid="1" gridSize="10" guides="1" tooltips="1" connect="1" arrows="1" fold="1" page="1" pageScale="1" pageWidth="1100" pageHeight="1700" math="0" shadow="0"><root><mxCell id="OdImikTy9D07-zW05k7Z-0"/><mxCell id="OdImikTy9D07-zW05k7Z-1" parent="OdImikTy9D07-zW05k7Z-0"/><mxCell id="fwN8uxOQwvW1X67hH1su-0" value="Clients" style="shape=umlActor;verticalLabelPosition=bottom;verticalAlign=top;html=1;" parent="OdImikTy9D07-zW05k7Z-1" vertex="1"><mxGeometry x="30" y="536" width="30" height="60" as="geometry"/></mxCell><mxCell id="fwN8uxOQwvW1X67hH1su-3" value="Admin" style="shape=umlActor;verticalLabelPosition=bottom;verticalAlign=top;html=1;" parent="OdImikTy9D07-zW05k7Z-1" vertex="1"><mxGeometry x="1040" y="576" width="30" height="60" as="geometry"/></mxCell><mxCell id="fwN8uxOQwvW1X67hH1su-4" value="Guests" style="shape=umlActor;verticalLabelPosition=bottom;verticalAlign=top;html=1;" parent="OdImikTy9D07-zW05k7Z-1" vertex="1"><mxGeometry x="100" y="346" width="30" height="60" as="geometry"/></mxCell><mxCell id="fwN8uxOQwvW1X67hH1su-5" value="Login/Logout" style="ellipse;whiteSpace=wrap;html=1;" parent="OdImikTy9D07-zW05k7Z-1" vertex="1"><mxGeometry x="500" y="246" width="100" height="40" as="geometry"/></mxCell><mxCell id="fwN8uxOQwvW1X67hH1su-6" value="Block User" style="ellipse;whiteSpace=wrap;html=1;" parent="OdImikTy9D07-zW05k7Z-1" vertex="1"><mxGeometry x="870" y="230" width="90" height="50" as="geometry"/></mxCell><mxCell id="fwN8uxOQwvW1X67hH1su-11" value="Register" style="ellipse;whiteSpace=wrap;html=1;" parent="OdImikTy9D07-zW05k7Z-1" vertex="1"><mxGeometry x="500" y="136" width="100" height="40" as="geometry"/></mxCell><mxCell id="I0JFtvjM8V_5Jfssn8mB-3" value="" style="endArrow=classic;html=1;rounded=0;entryX=0;entryY=0.5;entryDx=0;entryDy=0;exitX=0.5;exitY=0.5;exitDx=0;exitDy=0;exitPerimeter=0;" parent="OdImikTy9D07-zW05k7Z-1" source="fwN8uxOQwvW1X67hH1su-4" target="fwN8uxOQwvW1X67hH1su-11" edge="1"><mxGeometry width="50" height="50" relative="1" as="geometry"><mxPoint x="160" y="456" as="sourcePoint"/><mxPoint x="210" y="406" as="targetPoint"/></mxGeometry></mxCell><mxCell id="I0JFtvjM8V_5Jfssn8mB-4" value="" style="endArrow=classic;html=1;rounded=0;exitX=0.5;exitY=0.5;exitDx=0;exitDy=0;exitPerimeter=0;entryX=0;entryY=0.5;entryDx=0;entryDy=0;" parent="OdImikTy9D07-zW05k7Z-1" source="fwN8uxOQwvW1X67hH1su-0" target="fwN8uxOQwvW1X67hH1su-5" edge="1"><mxGeometry width="50" height="50" relative="1" as="geometry"><mxPoint x="125" y="386" as="sourcePoint"/><mxPoint x="490" y="246" as="targetPoint"/></mxGeometry></mxCell><mxCell id="I0JFtvjM8V_5Jfssn8mB-5" value="" style="endArrow=classic;html=1;rounded=0;entryX=0.5;entryY=1;entryDx=0;entryDy=0;exitX=0.5;exitY=0.5;exitDx=0;exitDy=0;exitPerimeter=0;" parent="OdImikTy9D07-zW05k7Z-1" source="fwN8uxOQwvW1X67hH1su-3" target="fwN8uxOQwvW1X67hH1su-6" edge="1"><mxGeometry width="50" height="50" relative="1" as="geometry"><mxPoint x="490" y="546" as="sourcePoint"/><mxPoint x="875" y="346" as="targetPoint"/></mxGeometry></mxCell><mxCell id="I0JFtvjM8V_5Jfssn8mB-6" value="" style="endArrow=classic;html=1;rounded=0;entryX=1;entryY=0.5;entryDx=0;entryDy=0;exitX=0.5;exitY=0.5;exitDx=0;exitDy=0;exitPerimeter=0;" parent="OdImikTy9D07-zW05k7Z-1" source="fwN8uxOQwvW1X67hH1su-3" target="fwN8uxOQwvW1X67hH1su-5" edge="1"><mxGeometry width="50" height="50" relative="1" as="geometry"><mxPoint x="480" y="676" as="sourcePoint"/><mxPoint x="865" y="476" as="targetPoint"/></mxGeometry></mxCell><mxCell id="I0JFtvjM8V_5Jfssn8mB-7" value="Close Account" style="ellipse;whiteSpace=wrap;html=1;" parent="OdImikTy9D07-zW05k7Z-1" vertex="1"><mxGeometry x="500" y="326" width="110" height="40" as="geometry"/></mxCell><mxCell id="I0JFtvjM8V_5Jfssn8mB-8" value="" style="endArrow=classic;html=1;rounded=0;entryX=0;entryY=0.5;entryDx=0;entryDy=0;exitX=0.5;exitY=0.5;exitDx=0;exitDy=0;exitPerimeter=0;" parent="OdImikTy9D07-zW05k7Z-1" source="fwN8uxOQwvW1X67hH1su-0" target="I0JFtvjM8V_5Jfssn8mB-7" edge="1"><mxGeometry width="50" height="50" relative="1" as="geometry"><mxPoint x="70" y="576" as="sourcePoint"/><mxPoint x="540" y="216" as="targetPoint"/></mxGeometry></mxCell><mxCell id="I0JFtvjM8V_5Jfssn8mB-9" value="" style="endArrow=classic;html=1;rounded=0;entryX=1;entryY=0.5;entryDx=0;entryDy=0;exitX=0.5;exitY=0.5;exitDx=0;exitDy=0;exitPerimeter=0;" parent="OdImikTy9D07-zW05k7Z-1" source="fwN8uxOQwvW1X67hH1su-3" target="I0JFtvjM8V_5Jfssn8mB-7" edge="1"><mxGeometry width="50" height="50" relative="1" as="geometry"><mxPoint x="165" y="426" as="sourcePoint"/><mxPoint x="550" y="226" as="targetPoint"/></mxGeometry></mxCell><mxCell id="I0JFtvjM8V_5Jfssn8mB-10" value="" style="endArrow=classic;html=1;rounded=0;entryX=0.5;entryY=0.5;entryDx=0;entryDy=0;exitX=0.5;exitY=0.5;exitDx=0;exitDy=0;exitPerimeter=0;entryPerimeter=0;" parent="OdImikTy9D07-zW05k7Z-1" source="fwN8uxOQwvW1X67hH1su-0" target="fwN8uxOQwvW1X67hH1su-4" edge="1"><mxGeometry width="50" height="50" relative="1" as="geometry"><mxPoint x="175" y="436" as="sourcePoint"/><mxPoint x="560" y="236" as="targetPoint"/></mxGeometry></mxCell><mxCell id="I0JFtvjM8V_5Jfssn8mB-11" value="Extends" style="edgeLabel;html=1;align=center;verticalAlign=middle;resizable=0;points=[];" parent="I0JFtvjM8V_5Jfssn8mB-10" vertex="1" connectable="0"><mxGeometry x="-0.118" y="-2" relative="1" as="geometry"><mxPoint as="offset"/></mxGeometry></mxCell><mxCell id="I0JFtvjM8V_5Jfssn8mB-12" value="Create Short Url" style="ellipse;whiteSpace=wrap;html=1;" parent="OdImikTy9D07-zW05k7Z-1" vertex="1"><mxGeometry x="492.5" y="406" width="125" height="50" as="geometry"/></mxCell><mxCell id="I0JFtvjM8V_5Jfssn8mB-13" value="Delete Short Url" style="ellipse;whiteSpace=wrap;html=1;" parent="OdImikTy9D07-zW05k7Z-1" vertex="1"><mxGeometry x="500" y="496" width="125" height="50" as="geometry"/></mxCell><mxCell id="I0JFtvjM8V_5Jfssn8mB-14" value="Read Short Url" style="ellipse;whiteSpace=wrap;html=1;" parent="OdImikTy9D07-zW05k7Z-1" vertex="1"><mxGeometry x="500" y="586" width="125" height="50" as="geometry"/></mxCell><mxCell id="I0JFtvjM8V_5Jfssn8mB-15" value="" style="endArrow=classic;html=1;rounded=0;entryX=0;entryY=0.5;entryDx=0;entryDy=0;exitX=0.5;exitY=0.5;exitDx=0;exitDy=0;exitPerimeter=0;" parent="OdImikTy9D07-zW05k7Z-1" source="fwN8uxOQwvW1X67hH1su-0" target="I0JFtvjM8V_5Jfssn8mB-12" edge="1"><mxGeometry width="50" height="50" relative="1" as="geometry"><mxPoint x="160" y="606" as="sourcePoint"/><mxPoint x="510" y="236" as="targetPoint"/></mxGeometry></mxCell><mxCell id="I0JFtvjM8V_5Jfssn8mB-16" value="" style="endArrow=classic;html=1;rounded=0;exitX=0.5;exitY=0.5;exitDx=0;exitDy=0;exitPerimeter=0;entryX=0;entryY=0.5;entryDx=0;entryDy=0;" parent="OdImikTy9D07-zW05k7Z-1" source="fwN8uxOQwvW1X67hH1su-0" target="I0JFtvjM8V_5Jfssn8mB-13" edge="1"><mxGeometry width="50" height="50" relative="1" as="geometry"><mxPoint x="65" y="586" as="sourcePoint"/><mxPoint x="520" y="246" as="targetPoint"/></mxGeometry></mxCell><mxCell id="I0JFtvjM8V_5Jfssn8mB-17" value="" style="endArrow=classic;html=1;rounded=0;entryX=0;entryY=0.5;entryDx=0;entryDy=0;" parent="OdImikTy9D07-zW05k7Z-1" target="I0JFtvjM8V_5Jfssn8mB-14" edge="1"><mxGeometry width="50" height="50" relative="1" as="geometry"><mxPoint x="50" y="566" as="sourcePoint"/><mxPoint x="510" y="531" as="targetPoint"/></mxGeometry></mxCell><mxCell id="I0JFtvjM8V_5Jfssn8mB-18" value="" style="endArrow=classic;html=1;rounded=0;entryX=1;entryY=0.5;entryDx=0;entryDy=0;exitX=0.5;exitY=0.5;exitDx=0;exitDy=0;exitPerimeter=0;" parent="OdImikTy9D07-zW05k7Z-1" source="fwN8uxOQwvW1X67hH1su-3" target="I0JFtvjM8V_5Jfssn8mB-13" edge="1"><mxGeometry width="50" height="50" relative="1" as="geometry"><mxPoint x="1050" y="606" as="sourcePoint"/><mxPoint x="520" y="541" as="targetPoint"/></mxGeometry></mxCell><mxCell id="I0JFtvjM8V_5Jfssn8mB-19" value="" style="endArrow=classic;html=1;rounded=0;exitX=0.5;exitY=0.5;exitDx=0;exitDy=0;exitPerimeter=0;entryX=0;entryY=0.5;entryDx=0;entryDy=0;" parent="OdImikTy9D07-zW05k7Z-1" source="fwN8uxOQwvW1X67hH1su-4" target="I0JFtvjM8V_5Jfssn8mB-12" edge="1"><mxGeometry width="50" height="50" relative="1" as="geometry"><mxPoint x="75" y="596" as="sourcePoint"/><mxPoint x="530" y="551" as="targetPoint"/></mxGeometry></mxCell><mxCell id="I0JFtvjM8V_5Jfssn8mB-20" value="" style="endArrow=classic;html=1;rounded=0;exitX=0.5;exitY=0.5;exitDx=0;exitDy=0;exitPerimeter=0;entryX=0;entryY=0.5;entryDx=0;entryDy=0;" parent="OdImikTy9D07-zW05k7Z-1" source="fwN8uxOQwvW1X67hH1su-4" target="I0JFtvjM8V_5Jfssn8mB-14" edge="1"><mxGeometry width="50" height="50" relative="1" as="geometry"><mxPoint x="85" y="606" as="sourcePoint"/><mxPoint x="540" y="561" as="targetPoint"/></mxGeometry></mxCell><mxCell id="Q2Xanj3EKXWihzGYyWga-0" value="" style="endArrow=classic;html=1;rounded=0;exitX=0.5;exitY=1;exitDx=0;exitDy=0;" parent="OdImikTy9D07-zW05k7Z-1" source="fwN8uxOQwvW1X67hH1su-11" target="fwN8uxOQwvW1X67hH1su-5" edge="1"><mxGeometry width="50" height="50" relative="1" as="geometry"><mxPoint x="55" y="576" as="sourcePoint"/><mxPoint x="510" y="531" as="targetPoint"/></mxGeometry></mxCell><mxCell id="Q2Xanj3EKXWihzGYyWga-1" value="Include" style="edgeLabel;html=1;align=center;verticalAlign=middle;resizable=0;points=[];" parent="Q2Xanj3EKXWihzGYyWga-0" vertex="1" connectable="0"><mxGeometry x="0.3429" y="2" relative="1" as="geometry"><mxPoint as="offset"/></mxGeometry></mxCell><mxCell id="Q2Xanj3EKXWihzGYyWga-2" value="Suspend Account" style="ellipse;whiteSpace=wrap;html=1;" parent="OdImikTy9D07-zW05k7Z-1" vertex="1"><mxGeometry x="670" y="230" width="110" height="44" as="geometry"/></mxCell><mxCell id="Q2Xanj3EKXWihzGYyWga-3" value="" style="endArrow=classic;html=1;rounded=0;entryX=0.5;entryY=1;entryDx=0;entryDy=0;exitX=0.5;exitY=0.5;exitDx=0;exitDy=0;exitPerimeter=0;" parent="OdImikTy9D07-zW05k7Z-1" source="fwN8uxOQwvW1X67hH1su-3" target="Q2Xanj3EKXWihzGYyWga-2" edge="1"><mxGeometry width="50" height="50" relative="1" as="geometry"><mxPoint x="1050" y="600" as="sourcePoint"/><mxPoint x="635" y="531" as="targetPoint"/></mxGeometry></mxCell><mxCell id="Q2Xanj3EKXWihzGYyWga-4" value="" style="endArrow=classic;html=1;rounded=0;entryX=0;entryY=0.5;entryDx=0;entryDy=0;exitX=1;exitY=0.5;exitDx=0;exitDy=0;" parent="OdImikTy9D07-zW05k7Z-1" source="Q2Xanj3EKXWihzGYyWga-2" target="fwN8uxOQwvW1X67hH1su-6" edge="1"><mxGeometry width="50" height="50" relative="1" as="geometry"><mxPoint x="1075" y="626" as="sourcePoint"/><mxPoint x="645" y="541" as="targetPoint"/></mxGeometry></mxCell><mxCell id="Q2Xanj3EKXWihzGYyWga-5" value="Includes" style="edgeLabel;html=1;align=center;verticalAlign=middle;resizable=0;points=[];" parent="Q2Xanj3EKXWihzGYyWga-4" vertex="1" connectable="0"><mxGeometry x="-0.3231" y="1" relative="1" as="geometry"><mxPoint as="offset"/></mxGeometry></mxCell><mxCell id="Q2Xanj3EKXWihzGYyWga-6" value="Unblock User" style="ellipse;whiteSpace=wrap;html=1;" parent="OdImikTy9D07-zW05k7Z-1" vertex="1"><mxGeometry x="820" y="660" width="90" height="50" as="geometry"/></mxCell><mxCell id="Q2Xanj3EKXWihzGYyWga-7" value="" style="endArrow=classic;html=1;rounded=0;entryX=1;entryY=0.5;entryDx=0;entryDy=0;exitX=0.5;exitY=0.5;exitDx=0;exitDy=0;exitPerimeter=0;" parent="OdImikTy9D07-zW05k7Z-1" source="fwN8uxOQwvW1X67hH1su-3" target="Q2Xanj3EKXWihzGYyWga-6" edge="1"><mxGeometry width="50" height="50" relative="1" as="geometry"><mxPoint x="1065" y="616" as="sourcePoint"/><mxPoint x="635" y="531" as="targetPoint"/></mxGeometry></mxCell></root></mxGraphModel></diagram><diagram id="xyAOrPlTbxY4HyUCIXsg" name="ClassDiagram"><mxGraphModel dx="1128" dy="735" grid="1" gridSize="10" guides="1" tooltips="1" connect="1" arrows="1" fold="1" page="1" pageScale="1" pageWidth="1100" pageHeight="1700" math="0" shadow="0"><root><mxCell id="RCZDq0vM72jU5t-bxr9w-0"/><mxCell id="RCZDq0vM72jU5t-bxr9w-1" parent="RCZDq0vM72jU5t-bxr9w-0"/></root></mxGraphModel></diagram></mxfile>